<svg width="134" height="134" viewBox="0 0 134 134" xmlns="http://www.w3.org/2000/svg" xmlns:xlink="http://www.w3.org/1999/xlink"><title>icon-monochrome-watches</title><defs><path id="a" d="M134 0H0v134h134V0z"/></defs><g fill="none" fill-rule="evenodd"><mask id="b" fill="#fff"><use xlink:href="#a"/></mask><path d="M109.803 99.074L94.57 20.748c15.47 9.552 25.786 26.659 25.786 46.182a54 54 0 0 1-10.553 32.144zM66.14 121.167c-12.458 0-23.926-4.215-33.081-11.281l10.278-54.648 22.384 45.64h1.18l21.528-45.64 10.675 54.742c-9.136 7.01-20.56 11.187-32.964 11.187zM11.926 66.93c0-19.688 10.486-36.923 26.174-46.426L22.776 99.482a54.007 54.007 0 0 1-10.85-32.552zM66.14 12.693a53.922 53.922 0 0 1 27.155 7.302L66.37 75.365 39.259 19.837a53.926 53.926 0 0 1 26.881-7.144zm64.969 59.871L134 68.97l-2.679-3.753 2.46-3.9-3.09-3.422 2-4.156-3.46-3.049 1.516-4.356-3.785-2.633 1.009-4.502-4.06-2.184.488-4.587-4.283-1.708-.035-4.612-4.45-1.208-.565-4.578-4.556-.693-1.08-4.483-4.607-.17-1.585-4.33-4.597.357-2.067-4.123-4.526.88-2.525-3.86-4.395 1.39-2.947-3.546-4.21 1.88-3.33-3.186-3.967 2.35L66.999 0l-3.673 2.787L59.36.437l-3.332 3.188-4.209-1.88-2.947 3.546-4.396-1.39-2.523 3.86-4.526-.88-2.066 4.122-4.598-.358-1.585 4.332-4.606.17-1.08 4.482-4.559.693-.562 4.578-4.45 1.208-.035 4.612-4.284 1.708.489 4.587L6.03 39.2l1.007 4.502-3.783 2.633 1.513 4.356-3.46 3.049 2.002 4.155-3.09 3.423 2.461 3.9L0 68.97l2.89 3.594L.655 76.6l3.281 3.24-1.761 4.263 3.628 2.847-1.264 4.434 3.93 2.413-.75 4.552 4.179 1.95-.227 4.606 4.373 1.46.3 4.603 4.51.952.823 4.537 4.59.433 1.335 4.413 4.61-.095 1.829 4.234 4.567-.619 2.3 3.998 4.469-1.136 2.739 3.709 4.309-1.64 3.144 3.373 4.096-2.118L63.174 134l3.825-2.574L70.826 134l3.509-2.992 4.095 2.118 3.144-3.374 4.31 1.641 2.738-3.709 4.469 1.136 2.3-3.998 4.568.62 1.83-4.235 4.61.095 1.334-4.413 4.59-.433.82-4.537 4.512-.952.3-4.604 4.374-1.459-.226-4.607 4.178-1.949-.75-4.552 3.93-2.413-1.264-4.434 3.628-2.847-1.76-4.262 3.28-3.241-2.236-4.035z" fill="#323232" mask="url(#b)"/></g></svg>